<svg xmlns="http://www.w3.org/2000/svg" viewBox="0 0 64 64" fill="none">
  <defs>
    <linearGradient id="field" x1="10" y1="8" x2="54" y2="58" gradientUnits="userSpaceOnUse">
      <stop offset="0" stop-color="#7b1d26" />
      <stop offset="1" stop-color="#1b2634" />
    </linearGradient>
    <linearGradient id="metal" x1="15" y1="14" x2="47" y2="50" gradientUnits="userSpaceOnUse">
      <stop offset="0" stop-color="#f1d89d" />
      <stop offset="0.55" stop-color="#d9ae58" />
      <stop offset="1" stop-color="#a7732c" />
    </linearGradient>
  </defs>

  <rect x="4.5" y="4.5" width="55" height="55" rx="16" fill="#f8f2e8" />
  <rect x="6.5" y="6.5" width="51" height="51" rx="14" fill="url(#field)" />
  <rect x="6.5" y="6.5" width="51" height="51" rx="14" stroke="url(#metal)" stroke-width="1.8" />
  <rect x="12.5" y="12.5" width="39" height="39" rx="10.5" stroke="#F3E8CF" stroke-opacity=".28" />

  <path d="M18 24.5 32 16l14 8.5" stroke="url(#metal)" stroke-width="3.6" stroke-linecap="round" stroke-linejoin="round" />
  <path d="M18.5 26.5h27" stroke="#F7F1E5" stroke-width="2.3" stroke-linecap="round" />

  <rect x="20.25" y="28.75" width="4.5" height="11.75" rx="1.7" fill="#F7F1E5" />
  <rect x="29.75" y="28.75" width="4.5" height="11.75" rx="1.7" fill="#F7F1E5" />
  <rect x="39.25" y="28.75" width="4.5" height="11.75" rx="1.7" fill="#F7F1E5" />

  <path d="M19.5 45c4-2.55 8.17-2.55 12.5 0 4.33-2.55 8.5-2.55 12.5 0" stroke="#F7F1E5" stroke-width="2.5" stroke-linecap="round" stroke-linejoin="round" />
  <path d="M22 48.25h20" stroke="url(#metal)" stroke-width="2.9" stroke-linecap="round" />
</svg>
